#!OML:ASF E:\emotionWalksFemale\Project 1\Capture day 1\Session 1\Female1.ASF
:FULLY-SPECIFIED
:DEGREES
553
root 9.20014 15.3064 -16.7467 -179.48 -7.31624 -183.268
lowerback 4.59477 -0.571415 -3.05606
upperback -4.13115 -1.10512 -0.0843793
thorax -6.84033 -0.437998 1.74584
lowerneck -6.92788 -4.36356 -6.46613
upperneck 17.8448 -6.73946 4.56339
head 6.9516 -3.61535 1.94846
rclavicle 1.02623e-014 1.03368e-014
rhumerus -46.9695 -5.33216 -77.7297
rradius 31.3777
rwrist 20.1494
rhand 1.59015 -52.9293
rfingers 7.12502
rthumb 27.1126 -81.0022
lclavicle 1.02623e-014 1.03368e-014
lhumerus -36.0101 -4.42779 90.9883
lradius 40.6649
lwrist -8.98876
lhand -6.61397 -35.789
lfingers 7.12502
lthumb 19.2421 -6.72096
rfemur -29.1305 36.4695 5.25532
rtibia 18.5978
rfoot -44.6205 -45.9991
rtoes 35.5048
lfemur 14.0667 -15.3538 -34.0864
ltibia 13.1703
lfoot -17.5582 13.0176
ltoes -16.79
554
root 9.21853 15.2958 -16.8811 -179.362 -7.56769 -183.43
lowerback 4.54642 -0.668411 -3.3174
upperback -4.21969 -1.26444 -0.115616
thorax -6.89545 -0.505478 1.87636
lowerneck -6.90899 -4.36828 -6.49544
upperneck 17.7867 -6.72866 4.53273
head 6.92906 -3.61254 1.94538
rclavicle -2.47238e-014 3.77691e-015
rhumerus -46.9898 -5.36404 -77.5809
rradius 31.2622
rwrist 20.63
rhand 1.73638 -52.7137
rfingers 7.12502
rthumb 27.2524 -80.7647
lclavicle -2.47238e-014 3.77691e-015
lhumerus -36.1311 -4.33867 91.1168
lradius 40.4384
lwrist -9.30283
lhand -6.6183 -35.9848
lfingers 7.12502
lthumb 19.2379 -6.91629
rfemur -28.644 35.3169 5.83665
rtibia 18.7348
rfoot -41.5651 -45.7858
rtoes 32.9753
lfemur 14.543 -15.0207 -34.0241
ltibia 13.0781
lfoot -17.2154 12.3525
ltoes -16.4395
555
root 9.23736 15.2856 -17.0172 -179.137 -7.76332 -183.479
lowerback 4.3385 -0.757183 -3.45134
upperback -4.38551 -1.405 -0.147095
thorax -6.94295 -0.572058 1.93104
lowerneck -6.78672 -4.36668 -6.40633
upperneck 17.7673 -6.73969 4.46427
head 6.89645 -3.62246 1.91073
rclavicle 8.57259e-015 -1.98785e-015
rhumerus -47.1197 -5.30272 -77.5479
rradius 31.1903
rwrist 20.8427
rhand 2.01004 -52.9324
rfingers 7.12502
rthumb 27.5142 -80.9421
lclavicle 8.57259e-015 -1.98785e-015
lhumerus -36.3231 -4.22735 91.1783
lradius 40.1946
lwrist -9.51178
lhand -6.67059 -36.2075
lfingers 7.12502
lthumb 19.1876 -7.13398
rfemur -28.2984 33.9918 6.55614
rtibia 18.9906
rfoot -38.9731 -44.9578
rtoes 31.0549
lfemur 14.8613 -14.6195 -33.7756
ltibia 12.9653
lfoot -16.7193 11.7225
ltoes -17.4904
556
root 9.25854 15.2815 -17.1669 -178.98 -7.9242 -183.508
lowerback 4.06966 -0.843697 -3.62288
upperback -4.32701 -1.51587 -0.0825343
thorax -6.71349 -0.621536 2.09854
lowerneck -7.53445 -4.43969 -6.56582
upperneck 18.0009 -6.74229 4.41361
head 7.1089 -3.61449 1.90079
rclavicle 1.6847e-014 6.55989e-015
rhumerus -46.8582 -5.02524 -77.5571
rradius 31.1986
rwrist 20.6068
rhand 2.2365 -53.1764
rfingers 7.12502
rthumb 27.7307 -81.1514
lclavicle 1.6847e-014 6.55989e-015
lhumerus -36.1971 -3.94035 91.3229
lradius 40.045
lwrist -9.63223
lhand -6.712 -36.4806
lfingers 7.12502
lthumb 19.1478 -7.40319
rfemur -27.6729 32.3826 7.56883
rtibia 19.2098
rfoot -36.2309 -43.9624
rtoes 28.9529
lfemur 15.1596 -14.2423 -33.5059
ltibia 13.0537
lfoot -15.1305 10.769
ltoes -18.0365
557
root 9.2812 15.2837 -17.3175 -178.928 -8.10674 -183.593
lowerback 3.94633 -0.834287 -3.83572
upperback -4.43216 -1.53067 -0.156028
thorax -6.75177 -0.622672 2.14135
lowerneck -6.98896 -4.48591 -6.81749
upperneck 17.3999 -6.86236 4.98338
head 6.85361 -3.64352 2.13286
rclavicle 2.43511e-014 8.74653e-015
rhumerus -47.1208 -5.13706 -77.4726
rradius 31.1718
rwrist 20.5635
rhand 1.9631 -52.992
rfingers 7.12502
rthumb 27.4693 -81.0088
lclavicle 2.43511e-014 8.74653e-015
lhumerus -36.6772 -4.05035 91.4254
lradius 40.1213
lwrist -9.79293
lhand -6.36201 -36.4411
lfingers 7.12502
lthumb 19.4843 -7.39732
rfemur -26.8133 30.7236 8.63526
rtibia 19.322
rfoot -33.4903 -43.0281
rtoes 26.4104
lfemur 15.4448 -13.9 -33.2965
ltibia 13.3897
lfoot -13.8946 10.1537
ltoes -24.7292
558
root 9.30626 15.2899 -17.4632 -178.911 -8.25822 -183.49
lowerback 3.93555 -0.809368 -3.85236
upperback -4.5449 -1.51021 -0.174817
thorax -6.86769 -0.611672 2.13078
lowerneck -5.47433 -4.3386 -7.95011
upperneck 15.5339 -6.82431 7.10565
head 6.10033 -3.54525 3.0481
rclavicle -2.38542e-015 2.38542e-015
rhumerus -47.2752 -5.37124 -77.2808
rradius 31.0291
rwrist 20.6989
rhand 1.67936 -52.8427
rfingers 7.12502
rthumb 27.1979 -80.9022
lclavicle -2.38542e-015 2.38542e-015
lhumerus -36.9575 -4.15974 91.5042
lradius 39.8974
lwrist -10.1958
lhand -5.99665 -36.3097
lfingers 7.12502
lthumb 19.8356 -7.3019
rfemur -26.1988 29.9804 9.49965
rtibia 19.4472
rfoot -31.383 -42.6102
rtoes 25.13
lfemur 15.6899 -13.5635 -32.8685
ltibia 13.7733
lfoot -13.4938 9.5374
ltoes -26.7746
559
root 9.32988 15.2992 -17.6127 -178.943 -8.37826 -183.16
lowerback 3.8909 -0.81178 -3.59929
upperback -4.5932 -1.49444 -0.138761
thorax -6.8978 -0.615443 2.025
lowerneck -6.77196 -4.60137 -7.21181
upperneck 16.9939 -7.08875 5.7807
head 6.74126 -3.71296 2.44158
rclavicle -1.89094e-014 1.98785e-016
rhumerus -47.2827 -5.50074 -77.1983
rradius 30.9759
rwrist 20.6312
rhand 1.7793 -53.169
rfingers 7.12502
rthumb 27.2935 -81.2135
lclavicle -1.89094e-014 1.98785e-016
lhumerus -36.902 -4.0886 91.4962
lradius 39.2367
lwrist -10.6761
lhand -6.04923 -36.4872
lfingers 7.12502
lthumb 19.785 -7.47412
rfemur -25.842 30.4117 10.1425
rtibia 19.6529
rfoot -30.358 -42.9862
rtoes 25.3583
lfemur 15.9985 -13.2379 -32.2254
ltibia 14.1496
lfoot -13.7673 8.73161
ltoes -22.6575
560
root 9.34982 15.313 -17.7651 -178.928 -8.49168 -182.846
lowerback 3.74297 -0.854741 -3.33474
upperback -4.66236 -1.53018 -0.0813045
thorax -6.88705 -0.646558 1.93804
lowerneck -6.44907 -4.56597 -7.54722
upperneck 16.4763 -7.06721 6.35949
head 6.5495 -3.67763 2.69546
rclavicle 1.31943e-014 -3.37934e-015
rhumerus -47.2673 -5.37342 -77.2337
rradius 30.8923
rwrist 20.4903
rhand 1.56684 -53.3309
rfingers 7.12502
rthumb 27.0903 -81.4073
lclavicle 1.31943e-014 -3.37934e-015
lhumerus -37.0722 -3.75169 91.4109
lradius 38.8869
lwrist -11.1092
lhand -5.75922 -36.5998
lfingers 7.12502
lthumb 20.0638 -7.61576
rfemur -25.6091 31.1899 10.5821
rtibia 19.8437
rfoot -28.122 -44.2171
rtoes 23.0124
lfemur 16.1663 -12.9099 -31.5892
ltibia 14.6702
lfoot -13.836 7.90899
ltoes -19.728
561
root 9.3715 15.3246 -17.924 -178.984 -8.64085 -182.609
lowerback 3.52941 -0.890786 -3.21547
upperback -4.70492 -1.5652 -0.0384494
thorax -6.80787 -0.672004 1.91497
lowerneck -5.86586 -4.47921 -8.04121
upperneck 15.8117 -7.00993 7.17128
head 6.27667 -3.62798 3.05858
rclavicle 5.73991e-015 -3.57812e-015
rhumerus -47.3162 -5.29522 -77.2105
rradius 30.7019
rwrist 20.4982
rhand 1.03258 -53.0498
rfingers 7.12502
rthumb 26.579 -81.2046
lclavicle 5.73991e-015 -3.57812e-015
lhumerus -37.4651 -3.52119 91.3372
lradius 38.8386
lwrist -11.421
lhand -5.27457 -36.5986
lfingers 7.12502
lthumb 20.5296 -7.66408
rfemur -25.1926 31.6563 11.1361
rtibia 20.0169
rfoot -24.2775 -45.5053
rtoes 19.3589
lfemur 16.3248 -12.4933 -31.0156
ltibia 15.3768
lfoot -13.4758 7.24933
ltoes -20.4629
562
root 9.39426 15.3354 -18.0798 -179.174 -8.7877 -182.249
lowerback 3.49923 -0.897151 -2.92849
upperback -4.71466 -1.55165 -0.0140544
thorax -6.80632 -0.679129 1.77793
lowerneck -5.79747 -4.50526 -8.19146
upperneck 15.7587 -7.08536 7.47237
head 6.26933 -3.6559 3.17506
rclavicle -3.72721e-015 -1.98785e-015
rhumerus -47.3479 -5.45797 -77.0998
rradius 30.5135
rwrist 20.593
rhand 0.842499 -52.9836
rfingers 7.12502
rthumb 26.3971 -81.1659
lclavicle -3.72721e-015 -1.98785e-015
lhumerus -37.7306 -3.42873 91.2381
lradius 38.4238
lwrist -11.7414
lhand -5.15548 -36.6569
lfingers 7.12502
lthumb 20.644 -7.73476
rfemur -24.5077 31.6829 12.1089
rtibia 20.1728
rfoot -22.7539 -45.6382
rtoes 20.8294
lfemur 16.5103 -12.0099 -30.3151
ltibia 16.2761
lfoot -13.0862 6.62919
ltoes -22.6337
563
root 9.41483 15.3503 -18.2217 -179.286 -8.79725 -181.785
lowerback 3.58856 -0.870273 -2.49649
upperback -4.78479 -1.48812 0.0525878
thorax -6.94261 -0.665977 1.6031
lowerneck -5.66457 -4.51654 -8.14769
upperneck 15.6073 -7.11942 7.5713
head 6.20292 -3.6656 3.20019
rclavicle 2.53078e-014 4.57205e-015
rhumerus -47.2846 -5.49326 -77.0503
rradius 30.3557
rwrist 20.6458
rhand 0.938485 -53.2679
rfingers 7.12502
rthumb 26.489 -81.4364
lclavicle 2.53078e-014 4.57205e-015
lhumerus -37.9313 -3.11266 91.0977
lradius 37.8295
lwrist -12.2391
lhand -5.31773 -36.673
lfingers 7.12502
lthumb 20.4881 -7.734
rfemur -23.7444 30.8484 13.4292
rtibia 20.2127
rfoot -22.053 -44.6939
rtoes 23.2168
lfemur 16.3683 -11.4716 -29.4848
ltibia 17.447
lfoot -12.41 5.96023
ltoes -21.8553
564
root 9.43367 15.3646 -18.3682 -179.527 -8.7361 -181.203
lowerback 3.62111 -0.862685 -2.00919
upperback -4.79086 -1.4338 0.202743
thorax -6.97575 -0.658816 1.48275
lowerneck -5.59154 -4.54957 -8.03016
upperneck 15.5125 -7.15263 7.45446
head 6.15515 -3.6829 3.14265
rclavicle -4.5472e-015 8.94531e-016
rhumerus -47.1452 -5.3676 -77.0267
rradius 30.1214
rwrist 20.9131
rhand 0.985113 -53.4726
rfingers 7.12502
rthumb 26.5336 -81.6343
lclavicle -4.5472e-015 8.94531e-016
lhumerus -38.1417 -2.54406 90.9131
lradius 37.3271
lwrist -12.8303
lhand -5.5007 -36.6603
lfingers 7.12502
lthumb 20.3123 -7.70252
rfemur -22.7176 29.6825 15.0191
rtibia 20.0501
rfoot -19.2929 -43.8724
rtoes 21.1907
lfemur 16.1301 -10.8502 -28.5242
ltibia 19.0041
lfoot -11.3264 5.35145
ltoes -20.2045
565
root 9.45262 15.3797 -18.5324 -180.039 -8.63405 -180.571
lowerback 3.66988 -0.83865 -1.47077
upperback -4.66892 -1.34503 0.338052
thorax -6.88394 -0.636516 1.3128
lowerneck -5.9996 -4.76266 -8.08819
upperneck 15.7635 -7.42415 7.4344
head 6.32994 -3.80865 3.11163
rclavicle 3.29237e-015 0
rhumerus -46.9999 -5.36197 -76.9337
rradius 29.8788
rwrist 21.3783
rhand 1.16156 -53.5631
rfingers 7.12502
rthumb 26.7025 -81.6992
lclavicle 3.29237e-015 0
lhumerus -38.329 -1.94596 90.6373
lradius 36.7857
lwrist -13.4971
lhand -5.63361 -36.8347
lfingers 7.12502
lthumb 20.1845 -7.86339
rfemur -21.3308 28.7928 16.71
rtibia 19.7447
rfoot -15.8563 -43.1797
rtoes 17.427
lfemur 16.0536 -10.0986 -27.5038
ltibia 20.8556
lfoot -10.5543 4.65635
ltoes -20.7358
566
root 9.47871 15.3986 -18.6831 -180.274 -8.67486 -180.138
lowerback 3.7864 -0.842557 -1.18352
upperback -4.66407 -1.32519 0.411743
thorax -6.95071 -0.637795 1.22934
lowerneck -5.63223 -4.60735 -8.18786
upperneck 15.32 -7.23711 7.77703
head 6.12559 -3.70517 3.26445
rclavicle 1.63376e-014 -9.93923e-017
rhumerus -46.7983 -5.47635 -76.8219
rradius 29.5933
rwrist 21.8677
rhand 1.25881 -53.5816
rfingers 7.12502
rthumb 26.7955 -81.7035
lclavicle 1.63376e-014 -9.93923e-017
lhumerus -38.5818 -1.52195 90.335
lradius 36.3676
lwrist -13.974
lhand -5.53805 -36.8612
lfingers 7.12502
lthumb 20.2764 -7.89961
rfemur -20.2832 27.8594 17.9836
rtibia 19.4931
rfoot -14.5986 -42.0213
rtoes 18.1277
lfemur 15.5766 -9.26043 -26.4746
ltibia 22.7092
lfoot -9.71442 3.71078
ltoes -20.7207
567
root 9.505 15.4165 -18.8173 -180.282 -8.87169 -179.795
lowerback 3.92323 -0.923159 -0.9824
upperback -4.78811 -1.42516 0.459949
thorax -7.16292 -0.696456 1.18236
lowerneck -5.54904 -4.54291 -8.16353
upperneck 15.2553 -7.18169 7.9305
head 6.09001 -3.67094 3.3163
rclavicle -5.39825e-015 -1.54058e-015
rhumerus -46.5307 -5.62192 -76.7507
rradius 29.1222
rwrist 22.386
rhand 0.788997 -53.3942
rfingers 7.12502
rthumb 26.3459 -81.5842
lclavicle -5.39825e-015 -1.54058e-015
lhumerus -38.9954 -1.17114 89.9964
lradius 36.0932
lwrist -14.2093
lhand -5.14879 -36.4485
lfingers 7.12502
lthumb 20.6504 -7.52709
rfemur -19.5843 26.8228 18.9462
rtibia 19.2848
rfoot -14.0925 -40.6957
rtoes 21.2231
lfemur 14.7457 -8.39887 -25.424
ltibia 24.6107
lfoot -8.38479 2.72838
ltoes -20.342
